<svg xmlns="http://www.w3.org/2000/svg" width="234" height="168" aria-hidden="true"><path fill="#ECECEC" d="M211.774 0H9.063C4.333 0 .5 3.838.5 8.572v150.856C.5 164.162 4.334 168 9.063 168h202.711c4.729 0 8.562-3.838 8.562-8.572V8.572c0-4.734-3.833-8.572-8.562-8.572Z"/><path fill="#fff" d="M9.063 1.97c-3.636 0-6.595 2.962-6.595 6.602v150.852c0 3.64 2.959 6.602 6.595 6.602h202.711c3.636 0 6.595-2.962 6.595-6.602V8.572c0-3.64-2.959-6.602-6.595-6.602H9.063Z"/><path fill="#ECECEC" d="M111.199 1.004h-1.57V167.18h1.57V1.004ZM101.083 28.06a2.224 2.224 0 0 0 2.223-2.226 2.224 2.224 0 1 0-4.447 0c0 1.23.996 2.226 2.224 2.226ZM119.75 28.06a2.224 2.224 0 0 0 2.223-2.226 2.224 2.224 0 1 0-4.447 0c0 1.23.996 2.226 2.224 2.226ZM101.083 57.144a2.224 2.224 0 0 0 2.223-2.226 2.224 2.224 0 1 0-4.447 0c0 1.23.996 2.226 2.224 2.226ZM119.75 57.144a2.224 2.224 0 0 0 2.223-2.226 2.224 2.224 0 1 0-4.447 0c0 1.23.996 2.226 2.224 2.226ZM101.083 86.224a2.224 2.224 0 0 0 2.223-2.226 2.224 2.224 0 1 0-4.447 0c0 1.23.996 2.226 2.224 2.226ZM119.75 86.224a2.224 2.224 0 0 0 2.223-2.226 2.224 2.224 0 1 0-4.447 0c0 1.23.996 2.226 2.224 2.226ZM101.083 115.308a2.225 2.225 0 0 0 2.223-2.226 2.225 2.225 0 0 0-2.223-2.226 2.225 2.225 0 0 0-2.224 2.226c0 1.229.996 2.226 2.224 2.226ZM119.75 115.308a2.225 2.225 0 0 0 2.223-2.226 2.225 2.225 0 1 0-4.447 0c0 1.229.996 2.226 2.224 2.226ZM101.083 144.388a2.225 2.225 0 0 0 2.223-2.226 2.224 2.224 0 1 0-4.447 0c0 1.229.996 2.226 2.224 2.226ZM119.75 144.388a2.225 2.225 0 0 0 2.223-2.226 2.224 2.224 0 1 0-4.447 0c0 1.229.996 2.226 2.224 2.226Z"/><path fill="#ECECEC" d="m101.287 24.806-.413-.67c.102-.062 10.27-6.212 19.1.013l-.452.646c-8.405-5.925-18.14-.048-18.235.011Z"/><path fill="#ECECEC" d="m101.287 27.535-.413-.67c.102-.063 10.27-6.212 19.1.012l-.452.646c-8.405-5.924-18.14-.047-18.235.012ZM101.287 54.016l-.413-.67c.102-.063 10.27-6.212 19.1.012l-.452.646c-8.405-5.925-18.14-.048-18.235.012Z"/><path fill="#ECECEC" d="m101.287 56.75-.413-.67c.102-.063 10.27-6.212 19.1.012l-.452.646c-8.405-5.925-18.14-.047-18.235.012ZM101.287 83.227l-.413-.67c.102-.063 10.27-6.213 19.1.012l-.452.646c-8.405-5.925-18.14-.048-18.235.011Z"/><path fill="#ECECEC" d="m101.287 85.96-.413-.67c.102-.063 10.266-6.212 19.1.012l-.452.646c-8.405-5.925-18.14-.047-18.235.012ZM101.287 112.435l-.413-.669c.102-.063 10.27-6.213 19.1.012l-.452.646c-8.405-5.921-18.14-.048-18.235.011Z"/><path fill="#ECECEC" d="m101.287 115.17-.413-.67c.102-.063 10.266-6.212 19.1.012l-.452.646c-8.405-5.925-18.14-.047-18.235.012ZM101.287 141.646l-.413-.669c.102-.063 10.27-6.213 19.1.012l-.452.642c-8.405-5.925-18.14-.048-18.235.011v.004Z"/><path fill="#ECECEC" d="m101.287 144.38-.413-.67c.102-.063 10.27-6.212 19.1.012l-.452.642c-8.405-5.925-18.14-.047-18.235.012v.004Z"/><path fill="#F25959" d="M20.91 29.9c8.087-.312 16.182-.446 24.276-.398 8.094.047 16.055.271 24.07.677 4.565.229 9.122.516 13.678.863.76.059.756-1.127 0-1.182-8.07-.61-16.153-1.04-24.243-1.292a540.187 540.187 0 0 0-37.784.15c-.756.027-.76 1.209 0 1.181h.004ZM20.643 110.722a340.776 340.776 0 0 1 19.206-.401c6.404.048 12.703.274 19.044.683 3.612.231 7.217.521 10.822.871.601.059.598-1.137 0-1.192a340.207 340.207 0 0 0-19.18-1.303 334.929 334.929 0 0 0-29.895.151c-.598.027-.601 1.219 0 1.191h.003Z"/><path fill="#393939" d="M20.91 43.27c8.087-.312 16.182-.446 24.276-.398 8.094.047 16.055.271 24.07.677 4.565.229 9.122.516 13.678.863.76.059.756-1.127 0-1.182-8.07-.61-16.153-1.04-24.243-1.292a540.187 540.187 0 0 0-37.784.15c-.756.027-.76 1.209 0 1.181h.004Z"/><path fill="#F25959" d="M139.993 69.346a547.996 547.996 0 0 1 24.275-.398c8.094.047 16.055.272 24.07.677 4.565.229 9.122.516 13.678.863.76.06.756-1.127 0-1.182-8.07-.61-16.153-1.04-24.243-1.292a540.192 540.192 0 0 0-37.784.15c-.756.027-.759 1.21 0 1.182h.004Z"/><path fill="#393939" d="M139.993 82.717a547.996 547.996 0 0 1 24.275-.398c8.094.047 16.055.272 24.07.677 4.565.229 9.122.517 13.678.863.76.06.756-1.126 0-1.182-8.07-.61-16.153-1.04-24.243-1.292a540.343 540.343 0 0 0-37.784.15c-.756.028-.759 1.21 0 1.182h.004ZM20.91 56.639c6.564-.256 13.132-.548 19.703-.662 5.62-.098 11.239-.008 16.85.264 4.002.193 8 .465 11.998.764.76.06.755-1.126 0-1.181-6.548-.497-13.104-.903-19.671-1.029-5.62-.106-11.242.016-16.858.205-4.006.138-8.011.3-12.021.457-.756.028-.76 1.21 0 1.182ZM20.91 70.01c6.95-.269 13.903-.552 20.856-.655a307.52 307.52 0 0 1 18.676.272c4.143.19 8.283.453 12.423.768.76.06.755-1.126 0-1.181C65.93 68.69 58.99 68.3 52.04 68.18c-6.23-.11-12.459 0-18.684.197-4.147.13-8.295.292-12.442.453-.756.028-.76 1.21 0 1.182l-.004-.004ZM20.91 83.376c6.32-.245 12.632-.63 18.948-.926 5.218-.244 10.436-.327 15.657-.154 3.912.13 7.82.375 11.719.67.76.06.755-1.127 0-1.182-6.296-.476-12.6-.811-18.916-.764-5.23.04-10.447.343-15.665.623a832.58 832.58 0 0 1-11.742.551c-.756.028-.76 1.213 0 1.182ZM20.91 96.746c8.087-.311 16.182-.445 24.276-.398 8.094.047 16.055.272 24.07.678 4.565.228 9.122.516 13.678.862.76.06.756-1.126 0-1.181-8.07-.611-16.153-1.04-24.243-1.292a540.338 540.338 0 0 0-37.784.15c-.756.027-.76 1.209 0 1.181h.004ZM139.993 31.416c6.949-.267 13.902-.551 20.855-.653a307.524 307.524 0 0 1 18.676.271c4.143.19 8.283.453 12.423.769.759.059.755-1.127 0-1.182-6.934-.524-13.875-.914-20.824-1.032-6.229-.11-12.459 0-18.684.197-4.147.13-8.295.291-12.442.453-.756.027-.76 1.209 0 1.181l-.004-.004ZM139.993 44.783c6.32-.244 12.631-.63 18.947-.926 5.218-.244 10.436-.327 15.657-.153 3.912.13 7.819.374 11.719.67.759.058.755-1.127 0-1.183-6.296-.476-12.6-.811-18.916-.764-5.229.04-10.447.343-15.665.623a832.51 832.51 0 0 1-11.742.551c-.756.028-.76 1.214 0 1.182ZM139.993 58.152a547.996 547.996 0 0 1 24.275-.398c8.094.048 16.055.272 24.07.678 4.565.228 9.122.516 13.678.863.76.059.756-1.127 0-1.182-8.07-.61-16.153-1.04-24.243-1.292a540.192 540.192 0 0 0-37.784.15c-.756.027-.759 1.209 0 1.181h.004Z"/><path fill="#F25959" d="M13.714 31.066a.557.557 0 0 1-.329-.105l-.006-.005-1.237-.919a.538.538 0 0 1-.21-.353.518.518 0 0 1 .108-.395.547.547 0 0 1 .364-.204.565.565 0 0 1 .407.105l.801.597 1.894-2.397a.545.545 0 0 1 .364-.204.567.567 0 0 1 .407.106l-.012.015.012-.015a.522.522 0 0 1 .102.748l-2.228 2.818a.546.546 0 0 1-.437.208ZM13.714 111.822a.558.558 0 0 1-.329-.106l-.006-.004-1.237-.919a.529.529 0 0 1-.197-.561.528.528 0 0 1 .256-.324.559.559 0 0 1 .61.038l.801.597 1.894-2.397a.552.552 0 0 1 .578-.19c.07.018.135.049.193.092l-.012.015.012-.015a.525.525 0 0 1 .102.748l-2.228 2.818a.546.546 0 0 1-.437.208ZM133.338 70.065a.558.558 0 0 1-.329-.105l-.006-.005-1.237-.919a.54.54 0 0 1-.21-.353.52.52 0 0 1 .269-.532.567.567 0 0 1 .61.038l.801.597 1.894-2.397a.55.55 0 0 1 .578-.19c.07.018.135.05.193.092l-.012.015.012-.015a.525.525 0 0 1 .102.748l-2.228 2.818a.547.547 0 0 1-.437.208Z"/><path fill="#393939" d="m149.384 90.38 78.883-57.976c.932-.69 2.238-.471 2.922.47l1.911 2.651a2.123 2.123 0 0 1-.466 2.95L153.767 96.45h-.016L143.293 101l-.793-1.098 6.884-9.522Z"/></svg>