<svg xmlns="http://www.w3.org/2000/svg" width="464" height="320" aria-hidden="true"><g clip-path="url(#a)"><path fill="#ECECEC" d="M193.374 319.501H40.034a2.842 2.842 0 0 1-2.84-2.844V185.308a2.842 2.842 0 0 1 2.84-2.844h153.34a2.841 2.841 0 0 1 2.007.834c.532.533.832 1.256.833 2.01v131.348a2.851 2.851 0 0 1-.833 2.011 2.841 2.841 0 0 1-2.007.834ZM40.034 183.599a1.71 1.71 0 0 0-1.702 1.705v131.352a1.706 1.706 0 0 0 1.702 1.705h153.34c.452-.001.884-.18 1.203-.5.319-.32.499-.753.5-1.205V185.308a1.708 1.708 0 0 0-1.703-1.705l-153.34-.004Z"/><path fill="#ECECEC" d="M62.567 222.673c6.388 0 11.567-5.187 11.567-11.586 0-6.4-5.179-11.587-11.567-11.587S51 204.687 51 211.087c0 6.399 5.179 11.586 11.567 11.586Z"/><path fill="#F25959" d="M61.541 216.361a1.413 1.413 0 0 1-.834-.268l-.015-.011-3.145-2.333a1.367 1.367 0 0 1-.36-.397 1.329 1.329 0 0 1-.14-1.027c.048-.172.13-.333.241-.474a1.42 1.42 0 0 1 .925-.519 1.444 1.444 0 0 1 1.033.267l2.037 1.514 4.813-6.083a1.421 1.421 0 0 1 1.47-.484c.177.046.343.125.489.233l-.03.04.03-.039a1.325 1.325 0 0 1 .258 1.898l-5.66 7.155a1.423 1.423 0 0 1-1.111.528Z"/><path fill="#ECECEC" d="M88.928 203.362A1.927 1.927 0 0 0 87 205.293a1.926 1.926 0 0 0 1.928 1.931h90.885a1.927 1.927 0 0 0 1.928-1.931 1.934 1.934 0 0 0-1.928-1.931H88.928ZM88.928 214.725A1.926 1.926 0 0 0 87 216.656a1.932 1.932 0 0 0 1.928 1.931h90.885a1.928 1.928 0 0 0 1.928-1.931 1.927 1.927 0 0 0-1.928-1.931H88.928ZM88.928 226.087A1.926 1.926 0 0 0 87 228.018a1.932 1.932 0 0 0 1.928 1.931h90.885a1.928 1.928 0 0 0 1.928-1.931 1.927 1.927 0 0 0-1.928-1.931H88.928ZM88.928 237.449A1.927 1.927 0 0 0 87 239.38a1.926 1.926 0 0 0 1.928 1.931h90.885a1.927 1.927 0 0 0 1.928-1.931 1.934 1.934 0 0 0-1.928-1.931H88.928ZM88.928 248.812A1.926 1.926 0 0 0 87 250.743a1.932 1.932 0 0 0 1.928 1.931h90.885a1.928 1.928 0 0 0 1.928-1.931 1.927 1.927 0 0 0-1.928-1.931H88.928ZM88.928 260.174A1.926 1.926 0 0 0 87 262.105a1.932 1.932 0 0 0 1.928 1.931h90.885a1.928 1.928 0 0 0 1.928-1.931 1.927 1.927 0 0 0-1.928-1.931H88.928ZM88.928 271.536A1.927 1.927 0 0 0 87 273.467a1.926 1.926 0 0 0 1.928 1.931h90.885a1.927 1.927 0 0 0 1.928-1.931 1.934 1.934 0 0 0-1.928-1.931H88.928ZM88.928 282.898A1.927 1.927 0 0 0 87 284.829a1.932 1.932 0 0 0 1.928 1.931h90.885a1.927 1.927 0 0 0 1.928-1.931 1.934 1.934 0 0 0-1.928-1.931H88.928ZM88.928 294.261A1.926 1.926 0 0 0 87 296.192a1.932 1.932 0 0 0 1.928 1.931h39.108a1.93 1.93 0 0 0 0-3.862H88.928ZM463.5 318.209H.5v1.066h463v-1.066Z"/><path fill="#ECECEC" d="M402.426 318.21h-153.34a2.851 2.851 0 0 1-2.84-2.845v-38.102a2.851 2.851 0 0 1 .833-2.01 2.841 2.841 0 0 1 2.007-.834h153.34a2.841 2.841 0 0 1 2.007.834c.532.533.832 1.256.833 2.01v38.102a2.851 2.851 0 0 1-2.84 2.845Zm-153.34-42.656a1.71 1.71 0 0 0-1.703 1.705v38.102a1.706 1.706 0 0 0 1.703 1.705h153.34a1.708 1.708 0 0 0 1.702-1.705v-38.098a1.707 1.707 0 0 0-1.702-1.705l-153.34-.004Z"/><path fill="#ECECEC" d="M272.912 306.439c6.388 0 11.567-5.188 11.567-11.587s-5.179-11.586-11.567-11.586c-6.389 0-11.567 5.187-11.567 11.586s5.178 11.587 11.567 11.587ZM299.626 287.128a1.93 1.93 0 0 0 0 3.862h90.885a1.93 1.93 0 0 0 0-3.862h-90.885ZM299.626 298.715a1.925 1.925 0 0 0-1.928 1.931 1.93 1.93 0 0 0 1.928 1.931h39.108a1.93 1.93 0 0 0 0-3.862h-39.108ZM375.487 273.524l-140.17-62.542a2.849 2.849 0 0 1-1.441-3.756l15.466-34.801a2.842 2.842 0 0 1 3.75-1.44l140.17 62.542a2.849 2.849 0 0 1 1.441 3.756l-15.465 34.801a2.843 2.843 0 0 1-3.751 1.44ZM252.631 172.022a1.706 1.706 0 0 0-2.248.863l-15.466 34.801a1.713 1.713 0 0 0 .864 2.252l140.17 62.541a1.701 1.701 0 0 0 2.249-.863l15.464-34.797a1.713 1.713 0 0 0-.864-2.251l-140.169-62.546Z"/><path fill="#ECECEC" d="M261.88 209.961c5.841 2.606 12.682-.021 15.28-5.867 2.598-5.847-.031-12.7-5.872-15.306-5.841-2.607-12.682.02-15.28 5.867-2.598 5.846.031 12.699 5.872 15.306ZM294.138 203.205a1.925 1.925 0 0 0-2.584 2.454c.184.478.549.864 1.016 1.072l83.071 37.056a1.927 1.927 0 0 0 2.584-2.454 1.936 1.936 0 0 0-1.016-1.072l-83.071-37.056ZM289.43 213.796a1.927 1.927 0 0 0-2.584 2.454 1.93 1.93 0 0 0 1.017 1.072l35.746 15.947a1.924 1.924 0 0 0 2.546-.977 1.934 1.934 0 0 0-.979-2.549l-35.746-15.947ZM260.278 167.633l-152.734 13.38a2.842 2.842 0 0 1-3.074-2.584l-3.304-37.934a2.846 2.846 0 0 1 2.581-3.08l152.733-13.38a2.842 2.842 0 0 1 3.075 2.584l3.304 37.934a2.85 2.85 0 0 1-.655 2.075 2.84 2.84 0 0 1-1.926 1.005Zm-156.432-29.087a1.704 1.704 0 0 0-1.548 1.846l3.304 37.934a1.706 1.706 0 0 0 1.843 1.549l152.733-13.38a1.704 1.704 0 0 0 1.548-1.846l-3.304-37.93a1.705 1.705 0 0 0-1.843-1.549l-152.733 13.376Z"/><path fill="#ECECEC" d="M130.257 167.211c6.364-.557 11.073-6.175 10.518-12.548-.555-6.373-6.164-11.087-12.527-10.529-6.364.558-11.073 6.176-10.518 12.548.555 6.373 6.164 11.087 12.527 10.529ZM155.19 145.655a1.929 1.929 0 0 0 .334 3.842l90.522-7.924a1.929 1.929 0 0 0-.334-3.842l-90.522 7.924ZM156.196 157.195a1.927 1.927 0 0 0-1.752 2.09 1.926 1.926 0 0 0 2.087 1.754l38.953-3.411a1.927 1.927 0 0 0 1.752-2.09 1.926 1.926 0 0 0-2.087-1.754l-38.953 3.411Z"/><path fill="#141414" d="M231.347 44.84c9.695 0 17.554-7.873 17.554-17.585 0-9.71-7.859-17.583-17.554-17.583-9.695 0-17.554 7.872-17.554 17.584 0 9.71 7.859 17.583 17.554 17.583Z"/><path fill="#FFCECE" d="M231.704 46.392c7.215 0 13.065-5.86 13.065-13.087 0-7.228-5.85-13.087-13.065-13.087-7.216 0-13.065 5.859-13.065 13.087 0 7.227 5.849 13.087 13.065 13.087ZM251.561 52.299s-23.937-4.263-39.364 1.066l4.522 35.966-1.064 5.861 31.916-1.065-2.128-5.862 6.118-35.966Z"/><path fill="#D51010" d="M234.926 91.111a160.689 160.689 0 0 1-16.49-1.046 4.516 4.516 0 0 1-2.906-1.519 4.53 4.53 0 0 1-1.116-3.087l.389-16.82.045-.066c4.625-6.71 2.372-11.611.638-14.25a3.417 3.417 0 0 1-.559-1.876c-.266-.373-.326.215-.16-.202a1.337 1.337 0 0 1 .977-.82l2.64-.528a1.33 1.33 0 0 1 1.521.88c.887 2.651 4.345 11.184 12.269 11.182 6.62 0 9.091-9.384 9.238-11.552a1.33 1.33 0 0 1 1.327-1.238h3.298a1.395 1.395 0 0 1 1.099.498 1.323 1.323 0 0 1 .129 1.466c-3.764 6.932 1.737 17.903 1.793 18.01l.035.069-1.552 16.141a4.543 4.543 0 0 1-3.497 3.984c-2.4.564-5.643.774-9.118.774Z"/><path fill="#141414" d="M204.549 128.564c-3.575 0-6.847-.394-9.447-1.326-3.091-1.108-5.031-2.899-5.768-5.329a7.036 7.036 0 0 1 .854-6.219c4.572-6.858 20.437-8.792 22.566-9.021l1.128-9.413a4.548 4.548 0 0 1 1.466-2.821 4.534 4.534 0 0 1 2.953-1.168l26.72-.418a4.473 4.473 0 0 1 2.95 1.017 4.49 4.49 0 0 1 1.572 2.7l1.518 8.366-17.521 8.512 2.649 7.431-.173.115c-5.128 3.424-19.875 7.573-31.467 7.574Z"/><path fill="#141414" d="M248.635 103.718s24.469-3.197 22.873 9.591-20.214 21.846-48.406 0l3.191-6.394s15.958 4.262 22.342 1.065v-4.262Z"/><path fill="#FFCECE" d="M226.826 108.513s0-6.394-5.32-5.861c-5.319.532-14.894 1.065-14.894 1.065s-3.192 2.132 1.064 3.197c4.255 1.066 17.022 6.394 17.022 6.394l2.128-4.795ZM235.868 107.447s0-6.394 5.32-5.861c5.319.533 14.894 1.066 14.894 1.066s3.191 2.131-1.064 3.197c-4.256 1.066-17.022 6.394-17.022 6.394l-2.128-4.796Z"/><path fill="#FFCECE" d="m267.743 106.236-7.937-27.562s-1.596-9.591-3.191-18.65c-1.596-9.058-7.448-7.992-7.448-7.992l-1.063.533V66.95l1.063 13.321 10.621 29.253a5.596 5.596 0 0 0 4.371 7.161 5.577 5.577 0 0 0 5.532-2.289 5.603 5.603 0 0 0-1.948-8.163v.002ZM214.059 53.098s-5.851-1.065-7.447 7.993-3.192 18.65-3.192 18.65l-7.937 27.561a5.597 5.597 0 0 0 .487 10.113 5.575 5.575 0 0 0 5.895-1.037 5.6 5.6 0 0 0 1.574-5.785l10.62-29.252 1.064-13.321V54.823a1.93 1.93 0 0 0-1.064-1.725Z"/><path fill="#141414" d="M218.771 25.266a38.804 38.804 0 0 0 16.809 5.548l-1.772-2.127c1.29.478 2.647.747 4.022.8a4.4 4.4 0 0 0 3.59-1.684 4.106 4.106 0 0 0 .275-3.791 7.77 7.77 0 0 0-2.441-3.058 14.526 14.526 0 0 0-13.528-2.422 8.691 8.691 0 0 0-4.043 2.596 4.926 4.926 0 0 0-.991 4.562"/><path fill="#141414" d="M232.999 11.623a40.15 40.15 0 0 0-14.608-9.462C214.859.85 211.015.04 207.324.785c-3.692.744-7.182 3.304-8.214 6.931-.842 2.967.028 6.162 1.335 8.955s3.052 5.382 4.109 8.28a18.93 18.93 0 0 1-2.629 17.831 18.86 18.86 0 0 1-16.356 7.514c3.628.487 6.971 2.195 10.517 3.104 3.546.909 7.731.847 10.366-1.697 2.788-2.692 2.843-7.07 2.708-10.946l-.601-17.288c-.102-2.938-.189-5.972.869-8.715 1.058-2.743 3.572-5.145 6.508-5.12 2.225.02 4.194 1.37 5.979 2.7 1.784 1.332 3.67 2.753 5.889 2.95 2.218.198 4.746-1.444 4.58-3.667"/><path fill="#ECECEC" d="M443.758 294.356a84.54 84.54 0 0 1-3.936 23.33c-.053.176-.112.348-.17.524h-14.688c.015-.158.031-.333.047-.524.979-11.278-4.616-79.101-11.367-90.839.591.952 31.253 31.674 30.114 67.509Z"/><path fill="#ECECEC" d="M442.656 317.686a18.8 18.8 0 0 1-.381.523h-11.02l.292-.523c1.821-3.291 7.209-13.13 12.21-23.33 5.373-10.962 10.306-22.339 9.89-26.457.129.929 3.848 29.24-10.991 49.787Z"/><path fill="#F25959" d="M128.596 161.077c-.299.033-.6-.028-.859-.176l-.016-.009-3.381-1.974a1.368 1.368 0 0 1-.402-.355 1.322 1.322 0 0 1-.064-1.503 1.42 1.42 0 0 1 .863-.617 1.41 1.41 0 0 1 1.056.153l2.19 1.28 4.116-6.574a1.401 1.401 0 0 1 .863-.617 1.43 1.43 0 0 1 1.056.153l-.025.042.026-.042a1.327 1.327 0 0 1 .466 1.859l-4.842 7.733a1.392 1.392 0 0 1-.446.441 1.44 1.44 0 0 1-.601.206ZM271.541 299.361a1.408 1.408 0 0 1-.834-.268l-.015-.011-3.145-2.333a1.36 1.36 0 0 1-.535-.897 1.319 1.319 0 0 1 .276-1.001 1.392 1.392 0 0 1 .926-.519 1.447 1.447 0 0 1 1.033.267l2.036 1.514 4.813-6.083a1.415 1.415 0 0 1 .926-.518 1.426 1.426 0 0 1 1.033.267l-.03.04.03-.039a1.327 1.327 0 0 1 .259 1.898l-5.661 7.155a1.4 1.4 0 0 1-1.112.528ZM263.006 203.343a1.418 1.418 0 0 1-.61-.63l-.008-.017-1.675-3.539a1.37 1.37 0 0 1-.13-.52 1.307 1.307 0 0 1 .081-.523c.061-.167.156-.32.279-.449a1.383 1.383 0 0 1 .961-.419 1.435 1.435 0 0 1 1.32.815l1.084 2.295 7.111-3.099c.165-.072.343-.111.525-.115a1.444 1.444 0 0 1 1.32.816l-.044.021.045-.02a1.323 1.323 0 0 1-.666 1.796l-8.364 3.645a1.397 1.397 0 0 1-1.229-.057Z"/></g><defs><clipPath id="a"><path fill="#fff" d="M.5.5h463v319H.5z"/></clipPath></defs></svg>